<?xml version="1.0" encoding="utf-8"?>
<svg xmlns="http://www.w3.org/2000/svg" version="1.1" id="Layer_1" x="0px" y="0px" viewBox="0 0 512 512" style="enable-background:new 0 0 512 512;" width="512" height="512">
  <style type="text/css">
	.st0{fill:#AF1C38;}
	.st1{fill:#EF4851;}
	.st2{fill:#CE3249;}
	.st3{fill:#DD3A4A;}
	.st4{fill:#F46977;}
	.st5{fill:#930F2F;}
	.st6{fill:#1D1D1B;}
	.st7{fill:#C42A40;}
	.st8{fill:#FBC042;}
</style>
  <g transform="matrix(1, 0, 0, 1, -22.447945, -202.783463)">
    <g>
      <g>
        <g>
          <g id="Layer_1" transform="matrix(1, 0, 0, 1, -115.643074, 179.178299)">
            <g transform="matrix(1, 0, 0, 1, 137.929581, 24.052502)">
              <g>
                <g>
                  <g fill="#af1c38">
                    <ellipse cx="49.09" cy="362.726" rx="5.099" ry="9.195" transform="matrix(.989 -.146 .146 .989 -52.431 11.054)"/>
                    <ellipse cx="71.279" cy="391.112" rx="5.099" ry="9.195" transform="matrix(.471 -.882 .882 .471 -307.375 269.991)"/>
                    <ellipse cx="105.596" cy="397.834" rx="9.195" ry="5.099" transform="matrix(.997 -.077 .077 .997 -30.243 9.285)"/>
                    <ellipse cx="74.223" cy="473.77" rx="5.099" ry="9.195" transform="matrix(.471 -.882 .882 .471 -378.591 315.89)"/>
                    <ellipse cx="120.291" cy="480.971" rx="9.195" ry="5.099" transform="matrix(.991 -.135 .135 .991 -63.69 20.586)"/>
                    <ellipse cx="164.308" cy="468.156" rx="9.195" ry="5.099" transform="matrix(.866 -.5 .5 .866 -212.069 144.88)"/>
                    <ellipse cx="197.003" cy="439.037" rx="9.195" ry="5.099" transform="matrix(.644 -.765 .765 .644 -265.758 307.067)"/>
                    <ellipse cx="223.716" cy="399.954" rx="9.195" ry="5.099" transform="matrix(.454 -.891 .891 .454 -234.203 417.911)"/>
                    <ellipse cx="84.729" cy="301.614" rx="5.099" ry="9.195" transform="matrix(.621 -.784 .784 .621 -204.269 180.658)"/>
                    <ellipse cx="108.765" cy="312.674" rx="5.099" ry="9.195" transform="matrix(.237 -.972 .972 .237 -220.775 344.268)"/>
                  </g>
                  <path d="m130.584 247.425s12.174 20.188 5.821 47.718c-4.533 19.645-21.694 59.374-48.89 57.145-24.524-2.01-14.426-25.41-2.397-24.594.801.054 1.163-.986.474-1.398-4.657-2.785-13.662-6.014-25.049.412-16.886 9.53-13.63 33.723-9.697 42.8 4.347 10.031 19.728 32.769 60.188 28.422 46.293-4.974 112.685-100.814 112.685-100.814l-29.927-13.375z" fill="#ef4851"/>
                  <path d="m134.941 225.895-8.192 16.095c2.647 15.948-3.993 22.341-9.825 24.904-4.544 1.997-9.724 2.008-14.406.361-14.356-5.048-7.543-21.296 2.057-23.1 1.442-.271 1.651-2.248.312-2.847-5.036-2.254-12.941-3.697-22.538 1.719-16.886 9.53-13.63 33.723-9.697 42.8 4.347 10.031 19.728 32.769 60.188 28.422 46.293-4.974 72.058-51.995 72.058-51.995z" fill="#ef4851"/>
                  <path d="m204.897 262.254-69.956-36.359-8.192 16.095c2.632 15.854-3.915 22.262-9.721 24.854 4.484 10.734 11.236 36.087-21.518 42.197 9.05 4.361 21.189 6.943 37.33 5.209 46.292-4.974 72.057-51.996 72.057-51.996z" fill="#c42a40"/>
                  <path d="m223.718 297.117-29.927-13.375-63.207-36.316s12.174 20.188 5.821 47.718c-2.427 10.517-8.476 26.785-17.743 39.295l.002.001s28.587 23.341-2.392 62.557c45.897-11.041 107.446-99.88 107.446-99.88z" fill="#dd3a4a"/>
                  <path d="m214.801 306.591c-.446-.223-32.023-6.41-32.023-6.41s-16.573 15.995-27.273 33.16c-15.271 24.497-14.684 55.918-49.919 64.517-.804.196-1.507.39-2.164.583 2.434-.064 4.966-.226 7.611-.511 36.08-3.876 84.366-62.946 103.916-88.822-.031-1.549-.079-2.483-.148-2.517z" fill="#c42a40"/>
                  <path d="m81.741 422.972c.973.358.985 1.741 0 2.062-3.128 1.02-7.537 3.314-7.823 8.173-.446 7.579 19.394 10.031 32.992 1.115 13.598-8.917 26.081-17.388 33.883-39.679 7.802-22.292 9.697-52.72 50.156-105.551s65.983-3.009 65.983-3.009v45.806s-6.202-3.266-11.146 14.298c-10.031 35.639-43.58 112.211-98.083 128.261s-80.473 2.564-88.832-16.83c-7.992-18.541 1.028-42.683 22.87-34.646z" fill="#ef4851"/>
                  <g>
                    <path d="m88.091 389.364c-.084 0-.169-.003-.254-.01-23.484-1.963-31.077-22.686-31.389-23.568-.554-1.566.267-3.287 1.834-3.841 1.563-.555 3.282.264 3.839 1.828.272.755 6.696 17.952 26.217 19.583 1.656.138 2.887 1.593 2.749 3.25-.132 1.571-1.448 2.758-2.996 2.758z" fill="#f26d7a"/>
                  </g>
                  <circle cx="99.382" cy="387.024" fill="#f26d7a" r="2.653"/>
                  <g>
                    <path d="m99.877 475.706c-15.798 0-25.898-10.752-26.412-11.312-1.125-1.224-1.044-3.128.18-4.253 1.221-1.126 3.121-1.046 4.247.173.529.572 13.184 13.892 31.799 7.734 1.574-.526 3.28.332 3.803 1.912.522 1.577-.334 3.28-1.912 3.801-4.169 1.381-8.087 1.945-11.705 1.945z" fill="#f26d7a"/>
                  </g>
                  <circle cx="124.353" cy="467.515" fill="#f26d7a" r="2.653"/>
                </g>
                <g>
                  <g fill="#af1c38">
                    <ellipse cx="463.348" cy="362.723" rx="9.195" ry="5.099" transform="matrix(.146 -.989 .989 .146 36.864 768.15)"/>
                    <ellipse cx="441.136" cy="391.145" rx="9.195" ry="5.099" transform="matrix(.882 -.471 .471 .882 -132.156 253.553)"/>
                    <ellipse cx="406.826" cy="397.893" rx="5.099" ry="9.195" transform="matrix(.077 -.997 .997 .077 -21.138 772.958)"/>
                    <ellipse cx="438.177" cy="473.732" rx="9.195" ry="5.099" transform="matrix(.882 -.471 .471 .882 -171.579 262.501)"/>
                    <ellipse cx="392.159" cy="480.981" rx="5.099" ry="9.195" transform="matrix(.135 -.991 .991 .135 -137.262 804.78)"/>
                    <ellipse cx="348.092" cy="468.177" rx="5.099" ry="9.195" transform="matrix(.5 -.866 .866 .5 -231.408 535.538)"/>
                    <ellipse cx="315.405" cy="439.026" rx="5.099" ry="9.195" transform="matrix(.765 -.644 .644 .765 -208.604 306.216)"/>
                    <ellipse cx="288.694" cy="399.962" rx="5.099" ry="9.195" transform="matrix(.891 -.454 .454 .891 -150.015 174.466)"/>
                    <ellipse cx="427.715" cy="301.598" rx="9.195" ry="5.099" transform="matrix(.784 -.621 .621 .784 -94.819 330.931)"/>
                    <ellipse cx="403.638" cy="312.623" rx="9.195" ry="5.099" transform="matrix(.972 -.237 .237 .972 -62.572 104.525)"/>
                  </g>
                  <path d="m381.832 247.425s-12.174 20.188-5.821 47.718c4.533 19.645 21.694 59.374 48.89 57.145 24.524-2.01 14.426-25.41 2.397-24.594-.801.054-1.163-.986-.474-1.398 4.657-2.785 13.662-6.014 25.049.412 16.886 9.53 13.63 33.723 9.697 42.8-4.347 10.031-19.728 32.769-60.188 28.422-46.293-4.974-112.685-100.814-112.685-100.814l29.927-13.375z" fill="#ef4851"/>
                  <path d="m377.475 225.895 8.192 16.095c-2.647 15.948 3.993 22.341 9.825 24.904 4.544 1.997 9.724 2.008 14.406.361 14.356-5.048 7.543-21.296-2.057-23.1-1.442-.271-1.651-2.248-.312-2.847 5.036-2.254 12.941-3.697 22.538 1.719 16.886 9.53 13.63 33.723 9.697 42.8-4.347 10.031-19.728 32.769-60.188 28.422-46.293-4.974-72.058-51.995-72.058-51.995z" fill="#ef4851"/>
                  <path d="m307.519 262.254 69.956-36.359 8.192 16.095c-2.632 15.854 3.915 22.262 9.721 24.854-4.484 10.734-11.236 36.087 21.518 42.197-9.05 4.361-21.189 6.943-37.33 5.209-46.292-4.974-72.057-51.996-72.057-51.996z" fill="#c42a40"/>
                  <path d="m288.698 297.117 29.927-13.375 63.207-36.316s-12.174 20.188-5.821 47.718c2.427 10.517 8.476 26.785 17.743 39.295l-.002.001s-28.587 23.341 2.392 62.557c-45.897-11.041-107.446-99.88-107.446-99.88z" fill="#dd3a4a"/>
                  <path d="m297.615 306.591c.446-.223 32.023-6.41 32.023-6.41s16.573 15.995 27.273 33.16c15.271 24.497 14.684 55.918 49.919 64.517.804.196 1.507.39 2.164.583-2.434-.064-4.966-.226-7.611-.511-36.08-3.876-84.366-62.946-103.916-88.822.031-1.549.079-2.483.148-2.517z" fill="#c42a40"/>
                  <path d="m430.675 422.972c-.973.358-.985 1.741 0 2.062 3.128 1.02 7.537 3.314 7.823 8.173.446 7.579-19.394 10.031-32.992 1.115-13.598-8.917-26.081-17.388-33.883-39.679-7.802-22.292-9.697-52.72-50.156-105.551s-65.983-3.009-65.983-3.009v46.01s6.202-3.471 11.146 14.094c10.031 35.639 43.58 112.211 98.083 128.261s80.473 2.564 88.832-16.83c7.992-18.541-1.027-42.683-22.87-34.646z" fill="#ef4851"/>
                  <path d="m324.981 293.756c-20.667 9.767-44.03 15.278-68.772 15.286-24.742-.008-48.105-5.519-68.773-15.286-33.78 45.548-38.444 73.908-44.736 94.949v.001s62.628-61.452 81.018 11.253c.007.027.015.051.021.078 10.767-20.16 18.168-40.067 22.047-53.85 3.475-12.348 7.57-14.066 9.697-13.999h1.449c2.127-.067 6.222 1.651 9.697 13.999 3.88 13.784 11.28 33.69 22.047 53.85.007-.027.015-.051.021-.078 18.391-72.705 81.018-11.253 81.018-11.253v-.001c-6.29-21.042-10.955-49.401-44.734-94.949z" fill="#dd3a4a"/>
                  <g>
                    <path d="m424.325 389.364c.085 0 .169-.003.254-.01 23.484-1.963 31.077-22.686 31.389-23.568.554-1.566-.267-3.287-1.834-3.841-1.563-.555-3.282.264-3.839 1.828-.272.755-6.696 17.952-26.217 19.583-1.656.138-2.887 1.593-2.749 3.25.132 1.571 1.448 2.758 2.996 2.758z" fill="#f26d7a"/>
                  </g>
                  <circle cx="413.034" cy="387.024" fill="#f26d7a" r="2.653"/>
                  <g>
                    <path d="m412.539 475.706c15.798 0 25.898-10.752 26.412-11.312 1.125-1.224 1.044-3.128-.18-4.253-1.221-1.126-3.121-1.046-4.247.173-.529.572-13.184 13.892-31.799 7.734-1.574-.526-3.28.332-3.803 1.912-.522 1.577.334 3.28 1.912 3.801 4.169 1.381 8.088 1.945 11.705 1.945z" fill="#f26d7a"/>
                  </g>
                  <circle cx="388.064" cy="467.515" fill="#f26d7a" r="2.653"/>
                </g>
                <g>
                  <path d="m408.955 166.387c0 78.786-68.358 142.66-152.696 142.66-84.323 0-152.696-63.874-152.696-142.66 0-28.273 8.802-54.635 24-76.799 13.407-19.576 50.234-56.071 99.866-63.302 9.381-1.367 18.974-2.558 28.83-2.558 28.95 0 56.004 7.523 79.071 20.599 5.477 3.1 10.743 6.515 15.739 10.232 13.678 10.127 25.459 22.405 34.728 36.293 14.686 21.908 23.158 47.789 23.158 75.535z" fill="#ef4851"/>
                  <g transform="matrix(1, 0, 0, 1, -2.10767, -35.736786)">
                    <path class="st6" d="M229.5,213.88c-6-11.3-23.6-11.1-30-0.2C209.2,208.88,219.9,208.28,229.5,213.88z"/>
                    <path class="st6" d="M229.5,213.88c-3.2-12.4-20.3-16.3-29.1-7.3C211,204.28,221.5,206.18,229.5,213.88z"/>
                  </g>
                  <path d="m256.932 213.69c-16.44.167-27.419-4.681-27.419-4.681.029.285.061.567.095.847 3.893 32.274 50.754 32.274 54.648 0 .034-.28.065-.562.095-.847 0 0-10.978 4.848-27.419 4.681z" fill="#1d1d1b"/>
                  <g transform="matrix(1, 0, 0, 1, 2.149587, -37.193218)">
                    <g>
                      <path class="st6" d="M282.5,214.28c6.2-11.2,23.7-10.7,30,0.2C302.8,209.58,292.2,208.88,282.5,214.28z"/>
                      <path class="st6" d="M282.5,214.28c3.4-12.4,20.6-15.9,29.2-6.8C301.2,204.98,290.7,206.68,282.5,214.28z"/>
                    </g>
                  </g>
                  <ellipse cx="200.264" cy="213.769" fill="#f46977" rx="9.446" ry="17.013" transform="matrix(.188 -.982 .982 .188 -47.391 370.197)"/>
                  <ellipse cx="313.586" cy="213.781" fill="#f46977" rx="17.013" ry="9.446" transform="matrix(.982 -.188 .188 .982 -34.646 62.873)"/>
                  <path d="m256.264 289.299c-80.78 0-146.899-58.604-152.328-132.784-.239 3.263-.37 6.553-.37 9.872 0 78.787 68.365 142.656 152.698 142.656s152.698-63.869 152.698-142.656c0-3.319-.132-6.609-.37-9.872-5.429 74.18-71.548 132.784-152.328 132.784z" fill="#dd3a4a"/>
                  <g fill="#c42a40">
                    <path d="m335.33 44.327c-3.882 13.136-28.77 20.539-57.404 16.642-29.989-4.078-52.709-18.974-50.768-33.299.06-.466.151-.933.271-1.384 9.329-1.685 18.974-2.558 28.83-2.558 28.95 0 56.004 7.523 79.071 20.599z"/>
                    <path d="m167.241 81.192c-15.724 12.474-33.314 16.491-39.257 8.983-.15-.196-.286-.376-.421-.587 13.407-19.576 32.02-35.902 53.718-47.383 1.58.632 2.678 1.565 3.671 2.814 5.958 7.509-1.972 23.714-17.711 36.173z"/>
                    <path d="m385.798 90.852c-6.245 1.595-16.19-.557-25.911-6.169-13.572-7.839-21.532-19.441-17.801-25.926 1.52-2.633 4.755-4.018 8.983-4.198 13.678 10.126 25.46 22.405 34.729 36.293z"/>
                    <ellipse cx="326.844" cy="81.683" rx="7.775" ry="16.282" transform="matrix(.5 -.866 .866 .5 92.679 323.894)"/>
                    <ellipse cx="387.9" cy="149.894" rx="9.86" ry="20.649" transform="matrix(.96 -.28 .28 .96 -26.435 114.386)"/>
                    <ellipse cx="147.663" cy="110.78" rx="16.282" ry="7.775" transform="matrix(.707 -.707 .707 .707 -35.084 136.86)"/>
                    <ellipse cx="361.403" cy="97.901" rx="2.981" ry="6.243" transform="matrix(.5 -.866 .866 .5 95.913 361.931)"/>
                    <ellipse cx="377.551" cy="179.52" rx="2.981" ry="6.243" transform="matrix(.96 -.28 .28 .96 -35.128 112.674)"/>
                    <ellipse cx="138.259" cy="207.93" rx="9.86" ry="20.648" transform="matrix(.894 -.448 .448 .894 -78.431 83.851)"/>
                    <ellipse cx="163.754" cy="231.644" rx="2.981" ry="6.243" transform="matrix(.894 -.448 .448 .894 -86.349 97.767)"/>
                    <ellipse cx="118.203" cy="121.598" rx="6.243" ry="2.981" transform="matrix(.371 -.929 .929 .371 -38.542 186.32)"/>
                  </g>
                </g>
              </g>
              <path d="m275.344 227.369c-2.975-3.411-10.41-5.834-19.136-5.834-8.127 0-15.131 2.104-18.46 5.148 10.141 9.582 27.123 9.805 37.596.686z" fill="#af1c38"/>
            </g>
          </g>
        </g>
      </g>
    </g>
  </g>
</svg>